<?xml version="1.0" standalone="no"?>
<!DOCTYPE svg PUBLIC "-//W3C//DTD SVG 20010904//EN"
 "http://www.w3.org/TR/2001/REC-SVG-20010904/DTD/svg10.dtd">
<svg version="1.0" xmlns="http://www.w3.org/2000/svg"
 width="444.000000pt" height="444.000000pt" viewBox="0 0 444.000000 444.000000"
 preserveAspectRatio="xMidYMid meet">
<metadata>
Created by potrace 1.11, written by Peter Selinger 2001-2013
</metadata>
<g transform="translate(0.000000,444.000000) scale(0.100000,-0.100000)"
fill="#000000" stroke="none">
<path d="M358 3118 c-46 -12 -103 -73 -117 -125 -7 -25 -11 -276 -11 -741 0
-612 2 -707 15 -740 66 -158 284 -162 356 -7 17 37 19 72 19 413 l0 372 93 0
c59 0 97 -4 105 -12 9 -9 12 -106 12 -373 0 -354 0 -362 23 -405 33 -66 80
-99 152 -106 50 -5 67 -2 104 18 25 13 59 40 75 61 l31 39 0 421 0 422 -25 64
c-26 65 -128 191 -155 191 -7 0 -15 4 -17 8 -2 4 -28 19 -58 32 -47 21 -75 24
-196 28 l-142 4 -3 163 -4 163 -31 39 c-56 71 -134 95 -226 71z"/>
<path d="M1500 2664 c-45 -20 -77 -50 -101 -96 -18 -36 -19 -62 -17 -547 l3
-509 31 -39 c16 -21 50 -48 75 -61 61 -32 147 -25 199 17 76 62 75 51 78 479
l3 382 29 0 30 0 0 -370 c0 -312 2 -377 15 -408 66 -158 284 -162 356 -7 17
37 19 72 19 413 0 351 1 372 18 372 41 0 42 -10 42 -385 0 -329 2 -363 19
-400 74 -161 312 -146 361 23 8 25 10 169 8 437 l-3 400 -26 57 c-51 115 -168
218 -281 246 -32 8 -169 12 -435 12 -324 -1 -394 -3 -423 -16z"/>
<path d="M2895 1693 c-59 -21 -103 -69 -121 -130 -14 -48 -14 -58 0 -106 18
-63 63 -109 126 -131 66 -23 1090 -24 1165 -1 90 26 158 128 139 208 -4 18 -9
35 -10 40 -1 4 -2 11 -3 17 0 5 -17 28 -37 49 -63 71 -68 72 -681 70 -436 -1
-546 -4 -578 -16z"/>
</g>
</svg>
